<?xml version="1.0" encoding="UTF-8"?>
<!DOCTYPE svg PUBLIC "-//W3C//DTD SVG 1.1//EN" "http://www.w3.org/Graphics/SVG/1.1/DTD/svg11.dtd">
<svg xmlns="http://www.w3.org/2000/svg" version="1.1" width="225px" height="225px" style="shape-rendering:geometricPrecision; text-rendering:geometricPrecision; image-rendering:optimizeQuality; fill-rule:evenodd; clip-rule:evenodd" xmlns:xlink="http://www.w3.org/1999/xlink">
<g><path style="opacity:1" fill="#010101" d="M -0.5,-0.5 C 74.5,-0.5 149.5,-0.5 224.5,-0.5C 224.5,74.5 224.5,149.5 224.5,224.5C 149.5,224.5 74.5,224.5 -0.5,224.5C -0.5,149.5 -0.5,74.5 -0.5,-0.5 Z"/></g>
<g><path style="opacity:1" fill="#ececec" d="M 176.5,51.5 C 178.722,51.178 180.556,51.8446 182,53.5C 189.307,64.4214 192.307,76.4214 191,89.5C 187.648,98.853 181.481,105.686 172.5,110C 181.263,126.767 178.597,141.434 164.5,154C 154.479,161.088 143.479,163.255 131.5,160.5C 122.256,170.554 111.09,173.22 98,168.5C 86.2813,179.196 73.1146,181.363 58.5,175C 54.4561,172.295 54.6228,170.129 59,168.5C 71.2472,177.368 82.5806,176.368 93,165.5C 95.341,161.607 97.1744,157.607 98.5,153.5C 99.181,156.899 99.5143,160.232 99.5,163.5C 110.455,166.791 119.622,164.124 127,155.5C 129.107,149.196 130.774,142.862 132,136.5C 133.833,139.002 134.666,141.835 134.5,145C 134.141,148.572 133.474,152.072 132.5,155.5C 146.721,158.469 158.555,154.469 168,143.5C 174.313,131.576 173.813,119.909 166.5,108.5C 170.317,105.534 174.317,102.701 178.5,100C 187.385,89.9334 188.885,78.7667 183,66.5C 181.881,63.2359 180.048,60.5692 177.5,58.5C 156.885,66.308 137.218,75.9746 118.5,87.5C 115.986,85.7824 115.153,83.4491 116,80.5C 123.931,74.7811 132.431,69.9478 141.5,66C 153.146,60.848 164.812,56.0147 176.5,51.5 Z"/></g>
<g><path style="opacity:1" fill="#ededed" d="M 139.5,41.5 C 147.035,40.9272 154.368,41.7605 161.5,44C 163.64,44.9733 165.307,46.4733 166.5,48.5C 166.023,49.4776 165.357,50.3109 164.5,51C 160.401,50.3003 156.401,48.9669 152.5,47C 141.848,44.0652 133.348,47.2319 127,56.5C 125.308,59.6438 124.142,62.9771 123.5,66.5C 122.009,65.6519 121.342,64.3186 121.5,62.5C 121.84,60.4878 122.173,58.4878 122.5,56.5C 108.513,52.2508 98.346,56.5842 92,69.5C 91.2753,74.2938 90.1087,78.9605 88.5,83.5C 85.8874,77.5374 85.8874,71.5374 88.5,65.5C 73.9657,61.3439 62.1324,65.3439 53,77.5C 47.8645,89.2137 48.6978,100.547 55.5,111.5C 47.2946,115.534 40.7946,121.534 36,129.5C 34.4688,142.376 37.4688,154.043 45,164.5C 59.2166,144.614 75.8833,126.947 95,111.5C 94.4576,115.984 93.1242,120.318 91,124.5C 74.2554,139.409 58.7554,155.409 44.5,172.5C 34.076,160.06 29.576,145.726 31,129.5C 34.5305,121.3 40.1971,114.967 48,110.5C 47.0656,106.584 46.0656,102.584 45,98.5C 43.0391,78.1223 51.8724,64.9557 71.5,59C 77.5522,58.2097 83.5522,58.3764 89.5,59.5C 93.8526,55.3146 98.8526,52.1479 104.5,50C 111.583,49.5085 118.583,49.8418 125.5,51C 129.545,46.766 134.212,43.5994 139.5,41.5 Z"/></g>
<g><path style="opacity:1" fill="#f2f2f2" d="M 109.5,78.5 C 110.497,78.4701 111.164,78.9701 111.5,80C 112.735,83.8709 114.068,87.7042 115.5,91.5C 120.467,92.329 125.467,92.829 130.5,93C 126.644,96.357 122.644,99.5237 118.5,102.5C 120.617,107.001 121.784,111.668 122,116.5C 118.254,113.71 114.421,111.043 110.5,108.5C 106.487,110.506 102.82,113.006 99.5,116C 98.6683,116.688 98.0016,116.521 97.5,115.5C 99.0137,111.115 100.68,106.782 102.5,102.5C 98.3562,99.5237 94.3562,96.357 90.5,93C 95.5329,92.829 100.533,92.329 105.5,91.5C 107.242,87.2746 108.576,82.9413 109.5,78.5 Z"/></g>
<g><path style="opacity:1" fill="#dadada" d="M 165.5,71.5 C 167.379,71.3932 167.712,71.8932 166.5,73C 157.507,77.4947 148.84,82.4947 140.5,88C 137.634,89.4568 134.634,89.7901 131.5,89C 142.769,82.8665 154.102,77.0332 165.5,71.5 Z"/></g>
<g><path style="opacity:1" fill="#e5e5e5" d="M 49.5,139.5 C 49.1667,139.5 48.8333,139.5 48.5,139.5C 61.8779,124.788 76.2112,111.121 91.5,98.5C 96.3007,100.101 96.6341,102.268 92.5,105C 77.1367,115.195 62.8034,126.695 49.5,139.5 Z"/></g>
<g><path style="opacity:1" fill="#616161" d="M 48.5,139.5 C 48.8333,139.5 49.1667,139.5 49.5,139.5C 46.8712,142.631 44.0379,145.631 41,148.5C 42.4546,144.857 44.9546,141.857 48.5,139.5 Z"/></g>
</svg>
